<?xml version="1.0" encoding="UTF-8"?>
<svg width="169px" height="45px" viewBox="0 0 169 45" version="1.1" xmlns="http://www.w3.org/2000/svg" xmlns:xlink="http://www.w3.org/1999/xlink">
                    <path d="M6.47208878,9.91311307 L21.706121,14.0993604 C22.0115261,14.1818639 22.4022229,14.049365 22.5834637,13.7987326 L28.1516765,6.18497905 C28.3310334,5.92622513 28.2676917,5.57185781 28.0074352,5.39185218 L20.120124,0.122482505 C19.8630113,-0.0481462058 19.4478562,-0.0394025676 19.1932405,0.141847386 L6.38491301,9.41123712 C6.13155704,9.59810878 6.17106483,9.82435458 6.47208878,9.91311307 L6.47208878,9.91311307 Z M31.3148749,2.98185218 L32.0260263,18.7131127 C32.0360593,19.024984 32.2881667,19.3543647 32.5835387,19.4506114 L41.5689301,22.3749862 C41.8730866,22.464989 42.191044,22.2924938 42.2826009,21.9937436 L44.8732373,12.8887387 C44.9585291,12.5943547 44.8211882,12.2006133 44.5678323,12.0168635 L31.7651455,2.73997449 C31.508657,2.55935781 31.3054662,2.66622573 31.3148749,2.98185218 L31.3148749,2.98185218 Z M45.6057144,24.3787348 L30.8131795,29.9137466 C30.5177963,30.02187 30.2832578,30.3599944 30.2832578,30.669988 L30.2682083,40.0899972 C30.2763573,40.4043682 30.5359895,40.6550006 30.8526873,40.6475013 L40.3379013,40.290001 C40.6495714,40.2793686 40.9781861,40.0281251 41.0766434,39.7318747 L45.9738369,24.7318689 C46.067902,24.4318632 45.8998378,24.2706114 45.6057144,24.3787348 L45.6057144,24.3787348 Z M29.5996972,44.5406201 L19.7469961,32.2287443 C19.553214,31.9831225 19.1549924,31.8624892 18.8602447,31.9574915 L9.86731737,34.8543688 C9.56943711,34.9587481 9.41140594,35.2818739 9.51550407,35.5818684 L12.78532,44.4650049 C12.893186,44.7543782 13.2349663,44.9893788 13.5491558,44.9893788 L29.3770646,45 C29.6925138,44.9956226 29.7934794,44.7887528 29.5996972,44.5406201 L29.5996972,44.5406201 Z M4.91682627,35.5299954 L0.0334337473,20.5224904 C-0.0631507602,20.2256177 0.0566323115,19.8299875 0.301214963,19.6387385 L7.76458658,13.7906111 C8.01668285,13.6006064 8.37602092,13.6506129 8.56667053,13.9018564 L14.1104251,21.5281087 C14.2941742,21.7787412 14.299815,22.1918586 14.1273586,22.4524902 L5.4247979,35.5981225 C5.24418131,35.855621 5.01841613,35.8256237 4.91682627,35.5299954 L4.91682627,35.5299954 Z" id="Fill-1" fill="#24335A"></path>
                    <path d="M165.138883,24.463435 L165.659751,24.463435 L165.659751,22.1229043 C165.659751,22.0298329 165.657273,21.8836636 165.652204,21.6843962 C165.645896,21.4857618 165.643305,21.3371052 165.643305,21.2402808 L165.643305,21.1190948 L166.802981,24.463435 L167.34221,24.463435 L168.491072,21.1190948 C168.491072,21.3333521 168.489833,21.5344849 168.486003,21.7218824 C168.482286,21.9086469 168.479695,22.0423246 168.479695,22.1229043 L168.479695,24.463435 L169,24.463435 L169,20.4988299 L168.225006,20.4988299 L167.076031,23.8506652 L165.920298,20.4988299 L165.138883,20.4988299 L165.138883,24.463435 L165.138883,24.463435 Z M161.391312,20.4988299 L161.391312,20.97106 L162.745524,20.97106 L162.745524,24.463435 L163.296131,24.463435 L163.296131,20.97106 L164.652259,20.97106 L164.652259,20.4988299 L161.391312,20.4988299 L161.391312,20.4988299 Z M139.913264,28.5398434 L134.587767,30.1870246 C133.521249,30.5168383 132.914771,31.118993 132.914771,32.2595892 C132.914771,33.968607 134.007873,34.838117 135.685939,34.838117 C137.477325,34.838117 138.483579,34.05918 139.913264,32.9791768 L139.913264,28.5398434 L139.913264,28.5398434 Z M145.364809,34.7962671 C145.471258,35.1123345 145.668386,35.5982998 145.746336,35.820674 C144.79066,36.6501995 143.890179,37 142.866804,37 C141.283922,37 140.493721,35.919375 140.00383,34.2690625 C138.879637,35.49961 137.144686,37 134.312689,37 C131.302039,37 129.687504,35.2297674 129.687504,32.8892256 C129.687504,30.0977062 131.697534,29.4368351 134.040878,28.7815824 L139.913264,27.067568 L139.913264,26.4385534 C139.913264,23.9780914 138.757418,22.0585582 136.14091,22.0585582 C134.435021,22.0585582 133.61373,22.7500423 133.61373,24.2791688 C133.61373,24.5808679 133.674558,25.1218078 133.765237,25.7177111 L131.238057,26.0187884 C130.813499,25.5990345 130.568948,25.1218078 130.568948,24.3991 C130.568948,21.9380052 133.308914,20.4975863 136.718777,20.4975863 C140.462631,20.4975863 142.956807,22.0292 142.956807,26.2592839 L142.956807,32.8580019 C142.956807,34.176613 143.474521,34.8955788 144.388293,34.8955788 C144.592969,34.8955788 144.987788,34.8637222 145.364809,34.7962671 L145.364809,34.7962671 Z M157.048076,20.4975863 C154.825712,20.4975863 153.455053,22.6007528 152.025481,25.0918278 L152.176312,20.4975863 L151.112947,20.4975863 L146.699985,21.9979763 L146.699985,22.717564 L148.980586,23.7694526 L148.980586,33.8186957 C148.980586,35.1991545 147.948312,35.3496987 146.547915,35.5302229 L146.547915,36.7001774 L155.069024,36.7001774 L155.069024,35.5302229 C152.816921,35.2897275 152.025481,35.1991545 152.025481,33.7000192 L152.025481,26.4978917 C154.0666,24.1598593 155.342187,23.7082378 157.291951,23.7082378 L158.539039,23.7082378 L158.539039,20.9173402 C158.234899,20.6774777 157.778013,20.4975863 157.048076,20.4975863 L157.048076,20.4975863 Z M126.478487,34.8531071 C124.620528,34.8531071 123.679495,33.8942787 123.679495,31.7342723 L123.679495,22.4477103 L128.427012,22.4477103 L128.427012,20.7992855 L123.679495,20.7992855 L123.679495,17.3768639 L122.766398,17.3768639 C121.21134,19.2963971 119.903988,20.438237 118.290017,21.3976871 L118.290017,22.4477103 L120.6346,22.4477103 L120.6346,32.7399361 C120.6346,35.8294237 122.734069,37 125.046324,37 C126.894821,37 128.178068,36.1848427 128.977055,35.4190303 C128.839629,35.1192077 128.681138,34.8237488 128.547429,34.4708282 C127.854215,34.7444127 127.17677,34.8531071 126.478487,34.8531071 L126.478487,34.8531071 Z M71.6755865,35.1710509 C65.4990721,35.1710509 62.8173209,29.7672707 62.8173209,24.2198194 C62.8173209,19.1183712 65.0307749,14.8570637 71.121747,14.8570637 C74.6177831,14.8570637 76.9636846,16.148193 78.3330706,20.1090561 L79.4831826,20.1090561 L79.3083583,15.0088515 C77.8825262,14.1399744 75.4346025,13 71.3264222,13 C64.5365019,13 59,17.7966289 59,25.4478685 C59,31.5100216 63.4592371,37 71.0355627,37 C74.7926751,37 77.4440122,36.2485558 79.8634706,35.1991545 L80.5040801,29.5267863 L79.2943904,29.5267863 C77.923709,33.2508959 76.1912134,35.1710509 71.6755865,35.1710509 L71.6755865,35.1710509 Z M95.9925924,29.4699353 C95.9925924,25.5990345 93.8627093,22.3577702 90.21021,22.3577702 C87.168582,22.3577702 85.6451772,24.7595157 85.6451772,28.0301383 C85.6451772,31.8997954 87.7761867,35.1398162 91.4287987,35.1398162 C94.4698634,35.1398162 95.9925924,32.7399361 95.9925924,29.4699353 L95.9925924,29.4699353 Z M99.2212103,28.4499033 C99.2212103,33.7000192 95.2011518,37 90.5150261,37 C85.7065684,37 82.4190374,33.6706609 82.4190374,29.0489267 C82.4190374,23.798189 86.4353786,20.4975863 91.1227434,20.4975863 C95.9330034,20.4975863 99.2212103,23.828169 99.2212103,28.4499033 L99.2212103,28.4499033 Z M117.355968,30.3082106 C117.355968,34.600131 113.316197,37 108.38169,37 C105.462957,37 102.899055,36.1885957 101.377002,34.9592919 L101.133689,29.3475057 L102.261036,29.3475057 C103.204547,32.5906466 105.274728,35.2297674 108.864597,35.2297674 C112.212956,35.2297674 114.45999,33.6706609 114.45999,31.0883912 C114.45999,28.8109407 112.638865,27.8183903 110.112361,26.829582 L106.794979,25.5390633 C103.872416,24.3991 101.377002,23.0786014 101.377002,19.2963971 C101.377002,16.0307601 104.760844,13 109.476708,13 C112.221855,13 114.798374,13.7764275 116.353432,14.9776168 L116.353432,20.0778213 L115.287589,20.0778213 C114.495473,16.8378006 112.70848,14.7696108 109.174482,14.7696108 C106.343838,14.7696108 104.244369,16.2362677 104.244369,18.6392679 C104.244369,20.619383 105.640372,21.5163747 107.981915,22.4177302 L111.542496,23.798189 C114.92003,25.1218078 117.355968,26.4385534 117.355968,30.3082106 L117.355968,30.3082106 Z" id="Fill-2" fill="#0B0B0A"></path>
                </svg>
